<svg xmlns="http://www.w3.org/2000/svg" width="100" height="35" viewBox="0 0 100 35">
  <path fill="#333" d="M723.449707,3629.8501 C724.973653,3629.8501 726.285842,3630.4876 727.562556,3631.64338 L727.801567,3631.86613 L728.067945,3632.12882 L730.759277,3635.22381 L730.759,3663.1 L727.759,3663.1 L727.759277,3636.34575 L725.879601,3634.18415 L725.695106,3634.00221 C724.901787,3633.24209 724.186018,3632.8501 723.449707,3632.8501 C722.824552,3632.8501 721.894638,3633.16661 720.516465,3633.80457 L720.234811,3633.93645 L720.077866,3634.01073 L708.621,3645.4781 L677.892,3645.4431 L677.892578,3637.90381 L677.877709,3637.68741 C677.876329,3637.32933 678.167664,3636.80104 678.852829,3636.12483 C679.513292,3635.473 680.147369,3635.07696 680.756184,3634.91345 L680.938072,3634.87135 L681.068,3634.8501 L702,3634.85 L702,3637.85 L681.445,3637.85 L681.375942,3637.89749 C681.319619,3637.93828 681.246627,3637.99608 681.157986,3638.07453 L681.064167,3638.16 L680.892,3638.328 L680.891,3642.446 L707.378,3642.477 L718.323709,3631.52191 L719.293779,3631.06459 C721.082134,3630.23759 722.283502,3629.8501 723.449707,3629.8501 Z M709.448,3647.4791 L725.759,3647.4981 L725.759,3663.1 L722.759,3663.1 L722.759,3650.495 L710.689,3650.48 L698.083,3663.1 L693.843,3663.1 L709.448,3647.4791 Z M677.892,3647.4431 L706.625,3647.4761 L691.015,3663.1 L686.775,3663.1 L699.394,3650.468 L680.891,3650.446 L680.892,3663.099 L677.892,3663.099 L677.892,3647.4431 Z M661.178539,3660.03564 L661.410255,3659.90218 L661.724609,3659.71671 C664.923501,3657.78322 666.588379,3655.32342 666.588379,3652.3833 C666.588379,3649.39665 664.868291,3647.14252 661.602432,3645.7074 L661.291735,3645.57526 L661.108875,3645.5 L640.042,3645.4991 L639.916633,3645.45756 C637.45601,3644.5966 636.260535,3643.06746 636.181014,3640.72878 L636.176758,3640.4751 L636.18117,3640.21712 C636.260647,3637.9175 637.415023,3636.21598 639.750493,3635.02059 L640.014856,3634.88985 L640.099,3634.8501 L677.3,3634.8501 L677.069478,3635.0981 C676.302902,3635.95589 675.886664,3636.80219 675.877238,3637.64945 L675.88231,3637.84499 L675.892,3637.9471 L675.892,3663.099 L672.892,3663.099 L672.892,3638.074 L672.888268,3638.03398 L672.881,3637.85 L640.82,3637.85 L640.70896,3637.9144 C639.753622,3638.48197 639.322307,3639.09849 639.209472,3639.92381 L639.190093,3640.10392 L639.180732,3640.26842 L639.176758,3640.4751 C639.176758,3641.48679 639.444116,3641.99134 640.34379,3642.40459 L640.509194,3642.47665 L640.567,3642.499 L661.702162,3642.50003 L662.25068,3642.72578 L662.747332,3642.93387 C667.096337,3644.82659 669.588379,3648.11149 669.588379,3652.3833 C669.588379,3656.33994 667.454031,3659.64848 663.576223,3662.09836 L663.249045,3662.30052 L662.907621,3662.50177 L661.980757,3663.03564 L631,3663.035 L631,3660.03564 L661.178539,3660.03564 Z M723.449707,3634.8501 L723.491364,3634.85525 C723.631919,3634.88635 723.911121,3635.05974 724.285966,3635.41771 L724.414398,3635.54393 L725.759,3637.0931 L725.759,3645.4981 L711.444,3645.4811 L721.245,3635.6711 L721.751983,3635.4411 L722.141514,3635.27359 C722.754959,3635.01752 723.1867,3634.87704 723.39422,3634.85361 L723.449707,3634.8501 Z M722.758,3638.401 L718.673,3642.49 L722.758,3642.494 L722.758,3638.401 Z M631,3655.035 L659.759,3655.035 L660.011289,3654.85525 C660.975677,3654.13478 661.437543,3653.46462 661.555072,3652.81407 L661.575044,3652.67495 L661.584227,3652.55175 L661.588379,3652.3833 C661.588379,3651.70615 661.301865,3651.20344 660.403839,3650.68655 L660.215985,3650.58293 L660.052,3650.499 L639.259167,3650.50002 L638.814474,3650.35824 L638.358731,3650.20918 C633.789124,3648.6398 631.176758,3645.17023 631.176758,3640.4751 C631.176758,3636.06893 633.459817,3632.59108 637.607247,3630.50293 L637.914038,3630.35263 L638.250852,3630.1975 L639.02909,3629.8501 L702,3629.85 L702,3632.85 L639.668283,3632.8501 L639.473724,3632.93695 L639.170756,3633.07672 C635.885821,3634.64266 634.176758,3637.14724 634.176758,3640.4751 C634.176758,3643.84141 635.933349,3646.18716 639.278315,3647.35295 L639.577577,3647.45275 L639.725787,3647.5 L660.706,3647.4991 L660.811703,3647.54435 C663.294875,3648.63643 664.500803,3650.1488 664.583773,3652.15801 L664.588379,3652.3833 L664.583578,3652.61413 C664.500315,3654.60442 663.332633,3656.33008 660.976803,3657.82757 L660.699697,3657.99935 L660.638,3658.0351 L631,3658.03564 L631,3655.035 Z" transform="translate(-631 -3629)"/>
</svg>
