<svg xmlns="http://www.w3.org/2000/svg" width="257" height="94" viewBox="0 0 257 94">
  <path fill="#333" fill-rule="evenodd" d="M8.67804958,47.4183064 C18.435108,47.4183064 23.5455397,51.2785743 23.5455397,61.3538011 C23.5455397,69.7277803 20.2266081,75.3545194 12.1293218,75.3545194 L12.1293218,75.3545194 L8.67804958,75.3545194 L8.67804958,94 L0.0495626822,94 L0.0495626822,47.4183064 Z M103.319759,47.7201592 L103.319759,54.8698949 L95.8206126,54.8698949 L95.8206126,93.9996376 L87.1169306,93.9996376 L87.1169306,54.8698949 L79.6184024,54.8698949 L79.6184024,47.7201592 L103.319759,47.7201592 Z M165.959058,1.4406808 L165.959058,8.59254646 L155.11944,8.59254646 L155.11944,20.9446232 L163.131845,20.9446232 L163.131845,28.4865798 L155.11944,28.4865798 L155.110117,54.8615224 L115.45766,54.8615224 L115.45766,67.2141994 L123.470065,67.2141994 L123.470065,74.7549556 L115.45766,74.7549556 L115.45766,93.9996376 L106.705667,93.9996376 L106.705667,47.7102569 L146.367447,47.7102569 L146.367447,1.4406808 L165.959058,1.4406808 Z M36.0740929,47.4184272 L36.0740929,86.8031851 L47.0920635,86.8031851 L47.0920635,93.9995169 L27.445606,93.9995169 L27.445606,47.4184272 L36.0740929,47.4184272 Z M70.5661062,47.4181856 L76.4068621,93.9998792 L68.1098395,93.9998792 L66.8489273,83.6631543 L59.8802126,83.6631543 L58.6854707,93.9998792 L51.4502366,93.9998792 L58.0880998,47.4181856 L70.5661062,47.4181856 Z M63.5967788,54.6151213 L63.4638254,54.6151213 L60.7428775,76.8587678 L66.1186031,76.8587678 L63.5967788,54.6151213 Z M9.55089159,54.615435 L8.7442199,54.6152421 L8.7442199,68.5501329 L9.47454415,68.5501329 C12.9919867,68.5501329 14.9170528,67.1762109 14.9170528,61.5500757 C14.9170528,54.8115167 12.2622751,54.6152421 9.40837383,54.6152421 Z M181.026423,3.55271368e-15 C188.659292,3.55271368e-15 193.637383,5.82301366 193.637383,24.2063922 C193.637383,42.5903746 188.659292,48.4127844 181.026423,48.4127844 C173.393555,48.4127844 168.415464,42.5903746 168.415464,24.2063922 C168.415464,5.82301366 173.393555,3.55271368e-15 181.026423,3.55271368e-15 Z M208.047134,0.432770337 C216.277373,0.432770337 221.719882,3.83466164 221.719882,13.6483903 C221.719882,17.5738818 220.52514,22.8074678 216.675621,25.0323156 L216.675621,25.0323156 L221.786052,47.0144639 L213.091395,47.0144639 L209.042752,26.9944574 L206.985345,26.9944574 L206.985345,47.0144639 L198.356858,47.0144639 L198.356858,0.432770337 Z M237.801352,0.432891121 L241.650872,24.3125616 L241.783825,24.3125616 L245.832468,0.432891121 L257.049563,0.432891121 L257.049563,47.0139808 L249.349911,47.0139808 L249.349911,12.8634128 L249.21757,12.8634128 L243.376814,47.0139808 L238.597847,47.0139808 L232.823261,12.8634128 L232.690308,12.8634128 L232.690308,47.0139808 L226.318964,47.0139808 L226.318964,0.432891121 L237.801352,0.432891121 Z M181.026423,7.19633175 C179.035187,7.19633175 177.840445,9.22430104 177.840445,19.2995278 L177.840445,19.2995278 L177.840445,29.1132565 C177.840445,39.1884833 179.035187,41.2164526 181.026423,41.2164526 C183.01766,41.2164526 184.212402,39.1884833 184.212402,29.1132565 L184.211671,18.8726418 C184.178104,9.16677293 182.989214,7.19633175 181.026423,7.19633175 Z M208.312428,7.23715686 L206.985345,7.23715686 L206.985345,20.1906748 L208.710675,20.1906748 C211.896653,20.1906748 213.091395,17.0502816 213.091395,13.7136139 C213.091395,8.67630243 211.233112,7.23715686 208.312428,7.23715686 L208.312428,7.23715686 Z" transform="translate(-.05)"/>
</svg>
