<svg xmlns="http://www.w3.org/2000/svg" width="258" height="120" viewBox="0 0 258 120">
  <path fill="#333" d="M58.1187843,62.4454881 L58.1187843,120 L46.0752115,120 C42.5488218,119.998671 39.1676955,118.608307 36.6770214,116.135341 C34.1863473,113.662376 32.7905692,110.309798 32.7973121,106.816505 L32.7973121,106.816505 L32.7973121,87.5343844 L0.0495626822,87.5343844 L0.0495626822,75.6038242 C0.0495626822,68.3366758 5.99655489,62.4454881 13.3325416,62.4454881 L13.3325416,62.4454881 L58.1187843,62.4454881 Z M121.181187,62.4454881 L121.181187,74.3760483 C121.181187,77.8702195 119.778255,81.2209123 117.281717,83.6893035 C114.78518,86.1576947 111.400074,87.5410655 107.87281,87.5343844 L107.87281,87.5343844 L88.4131193,87.5343844 L88.4131193,120 L76.3695464,120 C72.8422766,120 69.4598443,118.610233 66.9680712,116.137122 C64.476298,113.664011 63.0798233,110.310669 63.0865433,106.816505 L63.0865433,106.816505 L63.0865433,62.4454881 L121.181187,62.4454881 Z M212.826122,61.6303254 L212.826122,87.6299899 L207.365624,87.6299899 L207.365624,85.1140557 L207.289431,85.1140557 C207.01781,85.4929794 206.706199,85.8421498 206.359876,86.1556525 C205.950085,86.5263477 205.498392,86.8488524 205.0138,87.1167393 C204.474311,87.4125237 203.90368,87.6487586 203.312156,87.8212009 C202.688675,88.0028573 202.041981,88.0943753 201.392093,88.0929218 C200.064227,88.1112064 198.746208,87.8647925 197.516409,87.3683328 C196.38871,86.913514 195.370853,86.227592 194.529644,85.3555854 C193.682227,84.4576702 193.028855,83.397771 192.60958,82.2408588 C192.150733,80.9706787 191.923695,79.629753 191.939082,78.2807783 C191.932914,76.9830746 192.140515,75.6930669 192.553705,74.4615901 C192.936768,73.2905247 193.524795,72.1953394 194.290906,71.2260986 C195.036556,70.2907966 195.975175,69.5239594 197.044013,68.9768534 C198.180954,68.3995237 199.444183,68.1091494 200.721595,68.1314995 C201.897633,68.1140169 203.067884,68.297866 204.180757,68.6749413 C205.236556,69.0427077 206.154311,69.7201768 206.811955,70.6172425 L206.893227,70.6172425 L206.893227,61.6303254 L212.826122,61.6303254 Z M230.254,68.8208655 C231.511342,69.2628389 232.667981,69.9468901 233.657287,70.8336129 C234.626394,71.7193949 235.40102,72.7933513 235.932917,73.9885944 C237.036885,76.6236788 237.036885,79.5856469 235.932917,82.2207313 C235.40102,83.4159744 234.626394,84.4899309 233.657287,85.3757128 C232.669273,86.2641642 231.512265,86.9484334 230.254,87.3884602 C227.551171,88.3278054 224.606075,88.3278054 221.903247,87.3884602 C220.645966,86.9495588 219.490406,86.2651248 218.50504,85.3757128 C217.534389,84.4912805 216.759518,83.416983 216.229409,82.2207313 C215.660521,80.9226586 215.376569,79.5196527 215.396365,78.1046629 C215.377033,76.6897154 215.660966,75.2868051 216.229409,73.9885944 C216.759518,72.7923428 217.534389,71.7180452 218.50504,70.8336129 C219.491716,69.9459495 220.6469,69.2617377 221.903247,68.8208655 C224.606075,67.8815204 227.551171,67.8815204 230.254,68.8208655 Z M161.431407,68.8208655 C162.688749,69.2628389 163.845388,69.9468901 164.834694,70.8336129 C165.803801,71.7193949 166.578427,72.7933513 167.110324,73.9885944 C168.214292,76.6236788 168.214292,79.5856469 167.110324,82.2207313 C166.578427,83.4159744 165.803801,84.4899309 164.834694,85.3757128 C163.84668,86.2641642 162.689672,86.9484334 161.431407,87.3884602 C158.730325,88.3278316 155.786815,88.3278316 153.085734,87.3884602 C151.826884,86.949667 150.669641,86.2652588 149.682447,85.3757128 C148.711796,84.4912805 147.936925,83.416983 147.406816,82.2207313 C146.839671,80.9222808 146.557454,79.5192898 146.578852,78.1046629 C146.557918,76.6900779 146.840116,75.2871824 147.406816,73.9885944 C147.936925,72.7923428 148.711796,71.7180452 149.682447,70.8336129 C150.670947,69.945813 151.827816,69.2616262 153.085734,68.8208655 C155.786815,67.8814941 158.730325,67.8814941 161.431407,68.8208655 Z M185.706495,68.8158336 C186.59023,69.2392613 187.337679,69.897813 187.865296,70.7178799 C188.403161,71.5936693 188.758922,72.5671087 188.91168,73.5810131 C189.102916,74.7606679 189.196352,75.9538503 189.191055,77.1486078 L189.191055,87.6501174 L183.25308,87.6501174 L183.25308,78.3009057 C183.25308,77.7524321 183.25308,77.1838309 183.197206,76.5951023 C183.16107,76.0388171 183.041224,75.4910036 182.841638,74.9698088 C182.654901,74.490167 182.338595,74.0706411 181.927322,73.7571285 C181.411262,73.4094184 180.792531,73.2429011 180.169804,73.2841328 C179.524055,73.2550901 178.882205,73.3975432 178.310695,73.6967461 C177.851569,73.9540342 177.474854,74.3341897 177.223675,74.7936934 C176.960215,75.275226 176.788055,75.8005048 176.715721,76.3435089 C176.637082,76.9408043 176.598055,77.5425643 176.598892,78.1449178 L176.598892,87.6299899 L170.671077,87.6299899 L170.671077,68.5843677 L176.370313,68.5843677 L176.370313,71.1908755 L176.451586,71.1908755 C176.659053,70.7894064 176.924262,70.4199032 177.238913,70.0939282 C177.600819,69.7120474 178.014522,69.3818201 178.46816,69.1127139 C178.975746,68.810398 179.52029,68.5736555 180.088531,68.4082523 C180.731068,68.2178568 181.398919,68.1245564 182.069549,68.1314995 C183.318598,68.0830058 184.562385,68.3170389 185.706495,68.8158336 Z M254.569724,68.8158336 C255.452952,69.2380186 256.199071,69.8969487 256.723446,70.7178799 C257.26297,71.5933422 257.620456,72.5667781 257.774909,73.5810131 C257.964331,74.7608195 258.056068,75.9539919 258.049204,77.1486078 L258.049204,87.6501174 L252.090912,87.6501174 L252.090912,78.3009057 C252.090912,77.7541094 252.070594,77.1855082 252.029958,76.5951023 C251.998789,76.0381408 251.87878,75.4895825 251.67439,74.9698088 C251.289943,73.8591595 250.181122,73.1595976 249.002556,73.2841328 C248.359411,73.2611885 247.721565,73.4070025 247.153606,73.7068098 C246.696783,73.9670589 246.320796,74.3464797 246.066586,74.8037571 C245.803021,75.2852447 245.630854,75.8105433 245.558633,76.3535726 C245.477462,76.9506216 245.438424,77.5525516 245.441803,78.1549815 L245.441803,87.6400537 L239.534306,87.6400537 L239.534306,68.5843677 L245.233542,68.5843677 L245.233542,71.1908755 L245.309735,71.1908755 C245.520897,70.7903835 245.787622,70.4211505 246.102143,70.0939282 C246.464048,69.7120474 246.877751,69.3818201 247.33139,69.1127139 C247.838507,68.8095029 248.383171,68.5727084 248.951761,68.4082523 C249.592552,68.2178308 250.258734,68.1245244 250.927699,68.1314995 C252.178395,68.0829449 253.423847,68.3169644 254.569724,68.8158336 Z M143.734313,61.6303254 L143.734313,87.6299899 L137.796339,87.6299899 L137.796339,61.6303254 L143.734313,61.6303254 Z M222.578825,74.617578 C221.722069,75.5754255 221.27568,76.8262205 221.33434,78.1046629 C221.274055,79.3833434 221.720654,80.6347269 222.578825,81.5917477 C224.566695,83.3701407 227.590552,83.3701407 229.578422,81.5917477 C231.242784,79.5593559 231.242784,76.6499699 229.578422,74.617578 C227.590552,72.8391851 224.566695,72.8391851 222.578825,74.617578 Z M153.756232,74.617578 C152.896301,75.5744694 152.444702,76.8245551 152.496508,78.1046629 L152.511747,78.1046629 C152.454164,79.3829468 152.900414,80.6333528 153.756232,81.5917477 C155.746677,83.3685138 158.770463,83.3685138 160.760908,81.5917477 C162.42527,79.5593559 162.42527,76.6499699 160.760908,74.617578 C158.770463,72.8408119 155.746677,72.8408119 153.756232,74.617578 Z M199.116462,74.617578 C197.4521,76.6499699 197.4521,79.5593559 199.116462,81.5917477 C201.106907,83.3685138 204.130693,83.3685138 206.121138,81.5917477 C206.979309,80.6347269 207.425908,79.3833434 207.365624,78.1046629 C207.424283,76.8262205 206.977894,75.5754255 206.121138,74.617578 C204.130693,72.8408119 201.106907,72.8408119 199.116462,74.617578 Z M180.764109,39.2536062 C181.979556,39.2673614 183.186281,39.4589646 184.34518,39.8222073 C185.584735,40.1975255 186.707145,40.8798928 187.60624,41.8047635 L183.68992,45.8554176 C183.372658,45.4154786 182.952653,45.0581128 182.465753,44.8138209 C181.940804,44.5413697 181.35674,44.3997464 180.764109,44.4012076 C179.456967,44.3280222 178.180879,44.8135153 177.259231,45.7346528 C175.59212,47.767967 175.59212,50.6805402 177.259231,52.7138544 C178.180879,53.6349919 179.456967,54.120485 180.764109,54.0472996 C181.360817,54.0618004 181.949883,53.9119964 182.465753,53.6145589 C182.923909,53.3438589 183.33688,53.0043607 183.68992,52.6081852 L187.60624,56.6839987 C186.707145,57.6088693 185.584735,58.2912366 184.34518,58.6665548 C183.186281,59.0297975 181.979556,59.2214007 180.764109,59.235156 C179.340958,59.2445884 177.927357,59.0043847 176.588733,58.5256625 C175.330467,58.0856356 174.17346,57.4013665 173.185446,56.5129151 C172.216338,55.6271332 171.441713,54.5531767 170.909815,53.3579336 C169.806133,50.7245368 169.806133,47.7642253 170.909815,45.1308286 C171.441713,43.9355855 172.216338,42.861629 173.185446,41.975847 C174.17346,41.0873957 175.330467,40.4031265 176.588733,39.9630996 C177.927357,39.4843774 179.340958,39.2441737 180.764109,39.2536062 Z M202.763567,39.8976853 C203.817343,40.2802363 204.747409,40.9373422 205.455719,41.7997316 C206.157298,42.7030455 206.637251,43.7555802 206.85767,44.8742033 C207.138477,46.2604449 207.271276,47.6721063 207.253874,49.0858772 L207.253874,58.7671922 L201.808615,58.7671922 L201.808615,56.3569272 L201.732422,56.3569272 C201.110015,57.3440786 200.189321,58.1117533 199.101223,58.5508219 C197.175232,59.3266184 195.040334,59.4312971 193.04642,58.8477021 C192.25107,58.6141001 191.506828,58.2352311 190.852062,57.7306273 C190.212675,57.2361297 189.692182,56.6070859 189.328202,55.8889634 C188.944531,55.093258 188.754883,54.2194079 188.774533,53.3378061 C188.743443,52.3741395 188.954649,51.4179297 189.389156,50.5551828 C189.787679,49.8085379 190.356393,49.1641859 191.050164,48.673264 C191.786482,48.167656 192.601573,47.785183 193.462942,47.5410936 C194.373744,47.2615107 195.306547,47.0578494 196.251605,46.9322375 C197.209896,46.8007784 198.174782,46.7218257 199.14186,46.6957397 C200.101891,46.6957397 200.99081,46.6554847 201.808615,46.6554847 C201.847392,45.6975035 201.42984,44.7770759 200.680958,44.1697417 C199.93176,43.5568388 198.985667,43.2301523 198.014203,43.2489098 C197.087127,43.2360839 196.170602,43.444941 195.342369,43.8577659 C194.521676,44.2707783 193.788778,44.8362202 193.183568,45.5233143 L190.019018,42.3079504 C191.135495,41.2814947 192.457819,40.4996599 193.899782,40.0134183 C195.36954,39.5062293 196.914979,39.247671 198.471361,39.2485743 C199.930096,39.2036467 201.38481,39.4236434 202.763567,39.8976853 Z M161.431407,39.9429722 C162.689672,40.382999 163.84668,41.0672682 164.834694,41.9557196 C165.803801,42.8415015 166.578427,43.915458 167.110324,45.1107011 C168.214007,47.7440978 168.214007,50.7044094 167.110324,53.3378061 C166.578427,54.5330492 165.803801,55.6070057 164.834694,56.4927877 C163.84668,57.381239 162.689672,58.0655082 161.431407,58.5055351 C158.731442,59.4513751 155.785698,59.4513751 153.085734,58.5055351 C151.826884,58.0667418 150.669641,57.3823336 149.682447,56.4927877 C148.711796,55.6083553 147.936925,54.5340578 147.406816,53.3378061 C146.839225,52.0394935 146.556989,50.6364065 146.578852,49.2217377 C146.5574,47.8087318 146.839635,46.4073707 147.406816,45.1107011 C147.936925,43.9144494 148.711796,42.8401519 149.682447,41.9557196 C150.669641,41.0661736 151.826884,40.3817654 153.085734,39.9429722 C155.785698,38.9971321 158.731442,38.9971321 161.431407,39.9429722 Z M143.734313,32.7474002 L143.734313,58.7470647 L137.796339,58.7470647 L137.796339,32.7474002 L143.734313,32.7474002 Z M216.270045,32.7474002 L216.270045,58.7470647 L210.337151,58.7470647 L210.337151,32.7474002 L216.270045,32.7474002 Z M44.8358054,1.70530257e-13 C52.1717921,1.70530257e-13 58.1187843,5.89118775 58.1187843,13.1583361 L58.1187843,13.1583361 L58.1187843,57.5343844 L0.0495626822,57.5343844 L0.0495626822,45.6038242 C0.0495626822,38.3366758 5.99655489,32.4454881 13.3325416,32.4454881 L13.3325416,32.4454881 L32.7973121,32.4454881 L32.7973121,1.70530257e-13 Z M75.1301404,-2.06057393e-13 C82.466127,-2.06057393e-13 88.4131193,5.89118775 88.4131193,13.1583361 L88.4131193,13.1583361 L88.4131193,32.4454881 L121.181188,32.4454881 L121.181188,44.3659846 C121.182546,47.8605669 119.780041,51.212039 117.283209,53.6807208 C114.786378,56.1494025 111.400486,57.5323422 107.87281,57.5243554 L107.87281,57.5243554 L63.0865676,57.5243554 L63.0865676,-2.06057393e-13 Z M201.818774,50.3790674 L200.345709,50.3991949 C199.89871,50.3991949 199.329802,50.3991949 198.664384,50.4595773 C198.006998,50.497275 197.356047,50.6086877 196.724002,50.7916806 C196.144613,50.953427 195.606272,51.2346471 195.144267,51.6169071 C194.748507,51.956757 194.513433,52.4411223 194.489205,52.9544458 L194.489007,53.1264676 C194.458405,53.7816905 194.815403,54.3946796 195.403323,54.6964106 C195.979896,55.0246573 196.632985,55.1981054 197.297989,55.1995975 C197.867133,55.2032636 198.433698,55.1235697 198.979315,54.9630996 C199.494719,54.820073 199.983525,54.5958029 200.426982,54.298893 C200.847827,54.0172894 201.195847,53.6415063 201.442888,53.2019457 C201.704762,52.7202524 201.834378,52.1788906 201.818774,51.6320027 L201.818774,50.3790674 Z M153.756232,45.7346528 C152.896301,46.6915442 152.444702,47.9416299 152.496508,49.2217377 L152.511747,49.2217377 C152.454974,50.5014192 152.901036,51.7531003 153.756232,52.7138544 C155.746677,54.4906205 158.770463,54.4906205 160.760908,52.7138544 C162.428019,50.6805402 162.428019,47.767967 160.760908,45.7346528 C158.770463,43.9578867 155.746677,43.9578867 153.756232,45.7346528 Z" transform="translate(-.05)"/>
</svg>
