<svg xmlns="http://www.w3.org/2000/svg" width="377" height="120" viewBox="0 0 377 120">
  <path fill="#333" d="M186.823085,86.4583333 C189.334325,86.4583333 191.845566,86.875 194.147537,87.8125 L193.728996,92.2916667 C191.636296,91.0416667 189.43896,90.5208333 187.032355,90.5208333 C179.498633,90.5208333 174.476152,95.9375 174.476152,103.229167 C174.476152,110.833333 180.021808,115.9375 186.71845,115.9375 C189.02042,115.9375 192.159471,115.3125 193.833632,114.375 L194.147537,118.854167 C191.636296,119.895833 188.60188,120 186.71845,120 C176.359582,120 169.558305,113.4375 169.558305,103.125 C169.558305,93.125 176.882757,86.4583333 186.823085,86.4583333 Z M266.554975,86.9791667 L266.554975,115.3125 L280.157528,115.3125 L280.157528,119.375 L261.846399,119.375 L261.846399,86.9791667 L266.554975,86.9791667 Z M210.575236,86.9791667 L210.575236,119.375 L205.86666,119.375 L205.86666,86.9791667 L210.575236,86.9791667 Z M42.2174783,86.9791667 L42.2174783,119.375 L37.5089021,119.375 L37.5089021,86.9791667 L42.2174783,86.9791667 Z M139.214148,86.9791667 L153.549146,113.125 L153.653781,113.125 L153.653781,86.9791667 L158.362358,86.9791667 L158.362358,119.375 L152.398161,119.375 L137.644622,92.7083333 L137.539987,92.7083333 L137.539987,119.375 L132.831411,119.375 L132.831411,86.9791667 L139.214148,86.9791667 Z M62.5166734,86.9791667 L76.851672,113.125 L76.9563071,113.125 L76.9563071,86.9791667 L81.6648832,86.9791667 L81.6648832,119.375 L75.7006867,119.375 L60.842513,92.7083333 L60.737878,92.7083333 L60.737878,119.375 L56.0293018,119.375 L56.0293018,86.9791667 L62.5166734,86.9791667 Z M109.70707,86.9791667 L123.518894,119.375 L118.391778,119.375 L115.043457,111.145833 L99.0342976,111.145833 L95.6859768,119.375 L90.7681305,119.375 L104.789224,86.9791667 L109.70707,86.9791667 Z M25.6851441,86.9791667 L25.6851441,91.0416667 L13.024306,91.0416667 L13.024306,100.520833 L25.161969,100.520833 L25.161969,104.583333 L13.024306,104.583333 L13.024306,119.375 L8.31572977,119.375 L8.31572977,86.9791667 L25.6851441,86.9791667 Z M238.722058,86.9791667 L252.533881,119.375 L247.406765,119.375 L244.058444,111.145833 L228.049285,111.145833 L224.700964,119.375 L219.887753,119.375 L233.804212,86.9791667 L238.722058,86.9791667 Z M236.106182,91.3541667 L229.618811,107.395833 L242.593554,107.395833 L236.106182,91.3541667 Z M107.091195,91.3541667 L100.603823,107.395833 L113.578566,107.395833 L107.091195,91.3541667 Z M36.5671869,0.9375 C43.9962738,0.9375 50.9021855,1.97916667 51.7392657,1.97916667 C51.5299957,3.85416667 51.5299957,6.04166667 51.5299957,7.91666667 C51.5299957,10.4166667 51.6346307,12.8125 51.7392657,14.0625 L49.7512002,14.0625 C49.7512002,11.5625 48.7048499,9.6875 47.1353245,8.4375 C44.1009088,5.83333333 39.0784275,5.3125 36.1486468,5.3125 C27.6732096,5.3125 14.5938313,7.1875 14.5938313,33.3333333 C14.5938313,49.375 20.1394877,60.5208333 36.4625519,60.5208333 C39.9155077,60.5208333 44.6240839,60 47.1353245,56.9791667 C48.3909449,55.625 49.12339,53.75 49.12339,51.1458333 L51.1114555,51.1458333 C50.9021855,53.9583333 50.6929154,56.875 50.6929154,61.4583333 L50.6929154,63.125 C46.2982443,64.5833333 39.3923326,65.2083333 34.3698513,65.2083333 C22.2321883,65.2083333 12.0825907,61.7708333 6.11839421,54.375 C2.24689824,49.5833333 0.0495626822,42.9166667 0.0495626822,34.5833333 C0.0495626822,17.9166667 9.46671506,7.5 21.9182832,3.02083333 C26.8361294,1.25 32.904961,0.9375 36.5671869,0.9375 Z M175.417867,8.02083333 L175.417867,19.375 L190.171406,19.375 L190.171406,23.8541667 L175.417867,23.8541667 L175.417867,48.5416667 C175.417867,54.6875 175.941042,59.8958333 183.684034,59.8958333 C187.13699,59.8958333 189.43896,58.5416667 189.43896,58.5416667 L190.485311,60.625 C189.43896,61.6666667 185.462829,65.2083333 177.301297,65.2083333 C169.349035,65.2083333 166.10535,61.7708333 164.849729,56.9791667 C164.326554,54.7916667 164.117284,52.0833333 164.117284,47.6041667 L164.117553,46.403181 C164.123439,33.4261462 164.224997,28.0974265 164.326554,23.75 L158.362358,23.75 L158.362358,21.5625 C159.199438,21.25 162.547759,19.8958333 165.268269,17.5 C168.930495,14.2708333 172.278816,9.16666667 173.011261,8.02083333 L175.417867,8.02083333 Z M269.484756,18.4375 C278.169463,18.4375 281.936324,21.3541667 283.924389,25.2083333 C285.38928,28.0208333 285.493915,30.8333333 285.493915,37.3958333 C285.493915,40.5208333 285.18001,45.4166667 285.18001,53.0208333 C285.18001,55.8333333 285.59855,58.3333333 288.632965,58.3333333 C290.202491,58.3333333 291.039571,57.7083333 291.458111,57.5 L292.609096,59.375 C289.888586,63.0208333 287.168075,65.1041667 282.145594,65.1041667 C276.181397,65.1041667 274.925777,61.25 274.611872,59.0625 C274.611872,59.0625 271.158916,65.1041667 262.160304,65.1041667 C251.068991,65.1041667 248.76702,57.8125 248.76702,53.0208333 C248.76702,48.6458333 250.441181,43.6458333 256.300742,41.5625 C260.381508,40 265.927165,39.6875 274.193332,39.6875 L274.193332,37.5 C274.193332,33.5416667 274.088697,30.5208333 273.251617,28.5416667 C271.786726,25.3125 269.17085,24.375 265.508625,24.375 C261.427859,24.375 258.184173,26.0416667 255.986837,29.7916667 L253.057056,27.9166667 C253.684867,26.3541667 257.137822,18.4375 269.484756,18.4375 Z M134.610207,18.4375 C143.294914,18.4375 147.061775,21.3541667 149.04984,25.2083333 C150.480663,27.9554264 150.613763,30.7025194 150.61918,36.9440217 L150.619366,37.3958333 C150.619366,40.5208333 150.305461,45.4166667 150.305461,53.0208333 C150.305461,55.8333333 150.724001,58.3333333 153.758416,58.3333333 C155.327942,58.3333333 156.165022,57.7083333 156.583562,57.5 L157.734547,59.375 C155.118672,63.0208333 152.293526,65.1041667 147.271045,65.1041667 C141.306848,65.1041667 140.051228,61.25 139.737323,59.0625 C139.737323,59.0625 136.284367,65.1041667 127.285755,65.1041667 C116.194442,65.1041667 113.892471,57.8125 113.892471,53.0208333 C113.892471,48.6458333 115.566632,43.6458333 121.426193,41.5625 C125.506959,40 131.052616,39.6875 139.318783,39.6875 L139.318783,37.5 C139.318783,33.5416667 139.214148,30.5208333 138.377068,28.5416667 C136.912177,25.3125 134.296302,24.375 130.634076,24.375 C126.55331,24.375 123.309624,26.0416667 121.112288,29.7916667 L118.182507,27.9166667 C118.810318,26.3541667 122.263273,18.4375 134.610207,18.4375 Z M355.494747,18.4375 C364.49336,18.4375 368.574126,22.8125 370.143651,27.5 C370.94087,29.8809524 371.07374,33.6791383 371.084587,36.7349638 L371.085366,50.1041667 C371.085366,57.0833333 371.399271,58.75 372.654892,60.3125 C373.491972,61.25 375.061497,62.1875 377.049563,62.3958333 L377.049563,64.5833333 C376.840293,64.5833333 372.027081,64.2708333 365.435075,64.2708333 C359.156973,64.2708333 353.925222,64.5833333 353.925222,64.5833333 L353.925222,62.3958333 C356.750368,61.9791667 357.692083,60.5208333 358.529163,58.9583333 C359.351558,57.4232456 359.668973,53.776739 359.679857,45.0554185 L359.680148,44.5833333 C359.680148,39.8958333 359.575513,35.625 359.366243,33.0208333 C359.052338,29.2708333 357.482813,24.4791667 349.844456,24.4791667 C343.566354,24.4791667 340.845844,27.2916667 340.845844,27.2916667 C340.845844,27.2916667 341.996829,29.7916667 341.996829,37.2916667 L341.996829,50.1041667 C341.996829,57.1875 342.310734,58.6458333 343.461719,60.3125 C344.403434,61.5625 345.97296,62.2916667 347.43785,62.5 L347.43785,64.6875 C347.43785,64.6875 343.147814,64.375 336.660443,64.375 C330.068436,64.375 325.15059,64.6875 325.15059,64.6875 L325.15059,62.5 C327.975735,62.0833333 328.812816,60.625 329.649896,59.0625 C330.472028,57.5279018 330.789503,53.7827514 330.80058,45.0638586 L330.800738,43.509568 C330.799024,39.248644 330.776734,35.4246795 330.486976,33.0208333 C330.173071,29.375 328.49891,24.4791667 321.069824,24.4791667 C315.628802,24.4791667 313.117562,26.9791667 313.117562,26.9791667 L313.117562,50.2083333 C313.117562,57.2916667 313.431467,58.75 314.582452,60.4166667 C315.524167,61.6666667 317.198328,62.3958333 318.663218,62.6041667 L318.663218,64.7916667 C318.663218,64.7916667 314.134,64.4910703 308.036975,64.4795089 L307.67654,64.4791667 C301.712344,64.4791667 295.748147,64.7916667 295.748147,64.7916667 L295.748147,62.6041667 C296.794497,62.6041667 298.782563,62.0833333 300.247453,60.4166667 C301.788951,58.5751488 302.018341,55.9297938 302.026042,47.8423894 L302.026249,35.3125 C302.026249,29.1666667 301.921614,26.6666667 300.979899,25.2083333 C299.619643,23.2291667 296.794497,23.125 295.957417,23.125 L295.957417,20.8333333 L296.008733,20.8331533 C296.562474,20.830213 301.515147,20.7792468 306.83946,19.8958333 C310.710956,19.2708333 312.280481,18.6458333 312.280481,18.6458333 L312.908292,19.0625 L312.908292,24.375 C312.908292,24.375 316.779787,18.5416667 327.24329,18.5416667 C337.078983,18.5416667 340.008763,25 340.008763,25 C340.008763,25 344.298799,18.4375 355.494747,18.4375 Z M210.784506,-4.97379915e-14 L211.412316,0.416666667 C211.307681,1.97916667 211.098411,7.39583333 211.098411,17.8125 L211.098411,24.1666667 C211.098411,24.1666667 214.551367,18.4375 225.119504,18.4375 C233.490307,18.4375 237.780343,22.7083333 239.245233,27.3958333 C240.082313,29.8958333 240.186948,34.0625 240.186948,37.1875 L240.186948,50 C240.186948,56.9791667 240.500853,58.6458333 241.756474,60.2083333 C242.593554,61.1458333 244.163079,62.0833333 246.151145,62.2916667 L246.151145,64.4791667 C246.04651,64.5833333 241.442569,64.2708333 234.641292,64.2708333 C228.36319,64.2708333 223.131439,64.5833333 223.131439,64.5833333 L223.131439,62.3958333 C225.956585,61.9791667 226.8983,60.5208333 227.73538,58.9583333 C228.557512,57.4237351 228.874988,53.6785847 228.886064,44.9596919 L228.886365,44.4791667 C228.886365,39.7916667 228.78173,35.5208333 228.57246,33.0208333 C228.15392,28.9583333 226.375125,24.375 219.050673,24.375 C213.505016,24.375 210.889141,26.875 210.889141,26.875 L210.889141,50.1041667 C210.889141,57.1875 211.203046,58.6458333 212.354031,60.3125 C213.295746,61.5625 214.969907,62.2916667 216.434797,62.5 L216.434797,64.6875 C216.434797,64.6875 211.516951,64.375 205.343484,64.375 L204.661333,64.3762096 C198.661924,64.397314 193.415091,64.6875 193.415091,64.6875 L193.415091,62.5 C194.461442,62.5 196.554142,61.9791667 198.019033,60.3125 C199.532503,58.5044643 199.683851,55.9215561 199.692731,48.1739847 L199.693193,16.9791667 C199.693193,10.8333333 199.588558,8.33333333 198.646843,6.875 C197.391222,5 194.879982,4.89583333 193.519726,4.79166667 L193.519726,2.39583333 L193.660651,2.39508912 C194.566974,2.38779578 199.702881,2.30902778 204.924944,1.45833333 C208.79644,0.833333333 210.784506,-4.97379915e-14 210.784506,-4.97379915e-14 Z M74.9682416,-4.97379915e-14 L75.5960517,0.416666667 C75.4931902,1.95268362 75.2892105,7.21332472 75.2823255,17.2871425 L75.2821466,24.1666667 C75.2821466,24.1666667 78.7351025,18.4375 89.3032402,18.4375 C97.6740423,18.4375 101.964078,22.7083333 103.428969,27.3958333 C104.266049,29.8958333 104.370684,34.0625 104.370684,37.1875 L104.370684,50 C104.370684,56.9791667 104.684589,58.6458333 105.940209,60.2083333 C106.77729,61.1458333 108.346815,62.0833333 110.33488,62.2916667 L110.33488,64.4791667 C110.230245,64.5833333 105.626304,64.2708333 98.8250276,64.2708333 C92.546926,64.2708333 87.3151747,64.5833333 87.3151747,64.5833333 L87.3151747,62.3958333 C90.1403204,61.9791667 91.0820356,60.5208333 91.9191158,58.9583333 C92.7412482,57.4237351 93.0587234,53.6785847 93.0697996,44.9596919 L93.0701011,44.4791667 C93.0701011,39.7916667 92.9654661,35.5208333 92.756196,33.0208333 C92.3376559,28.9583333 90.5588605,24.375 83.2344086,24.375 C77.6887522,24.375 75.0728766,26.875 75.0728766,26.875 L75.0728766,50.1041667 C75.0728766,57.1875 75.3867817,58.6458333 76.537767,60.3125 C77.4794822,61.5625 79.1536426,62.2916667 80.618533,62.5 L80.618533,64.6875 C80.618533,64.6875 75.7006867,64.375 69.5272202,64.375 C63.2491186,64.375 57.5988272,64.6875 57.5988272,64.6875 L57.5988272,62.5 C58.6451774,62.5 60.737878,61.9791667 62.2027683,60.3125 C63.7442665,58.4709821 63.8727247,55.8256271 63.8768209,47.7382228 L63.8769288,16.9791667 C63.8769288,10.8333333 63.7722937,8.33333333 62.8305785,6.875 C61.5749582,5 59.0637176,4.89583333 57.7034622,4.79166667 L57.7034622,2.39583333 L57.8443863,2.39508912 C58.7507096,2.38779578 63.8866172,2.30902778 69.1086801,1.45833333 C72.9801761,0.833333333 74.9682416,-4.97379915e-14 74.9682416,-4.97379915e-14 Z M139.423418,43.3333333 C137.226082,43.3333333 132.203601,43.5416667 129.48309,44.6875 C126.867215,45.8333333 125.193054,48.125 125.193054,51.7708333 C125.193054,56.5625 128.0182,58.9583333 132.517506,58.9583333 C136.389002,58.9583333 138.377068,57.3958333 139.423418,56.7708333 L139.423418,43.3333333 Z M274.193332,43.3333333 C271.995996,43.3333333 266.973515,43.5416667 264.253004,44.6875 C261.637129,45.8333333 259.962968,48.125 259.962968,51.7708333 C259.962968,56.5625 262.788114,58.9583333 267.28742,58.9583333 C271.158916,58.9583333 273.146981,57.3958333 274.193332,56.7708333 L274.193332,43.3333333 Z" transform="translate(-.05)"/>
</svg>
