<svg xmlns="http://www.w3.org/2000/svg" width="437" height="93" viewBox="0 0 437 93">
  <path fill="#333" d="M103.24108,61.5339919 C112.890504,61.5339919 118.652928,67.2755343 118.652928,76.8910889 L118.652928,76.8910889 L118.652928,78.3675287 L94.9775691,78.3675287 C95.3647099,83.4658445 98.3922044,86.5026013 103.111687,86.5026013 C107.35101,86.5026013 110.065674,84.842238 112.189493,80.9576147 L112.189493,80.9576147 L112.302777,80.7494377 L118.415447,84.0888596 L118.302682,84.2884467 C114.932218,90.1507519 110.005394,92.9995432 103.24108,92.9995432 C93.6467394,92.9995432 87.446248,86.8229514 87.446248,77.264999 C87.446248,68.0036485 93.9413823,61.5339919 103.24108,61.5339919 Z M186.856411,61.5339919 C191.377905,61.5339919 195.444185,63.1266473 198.611466,66.1431928 C201.799532,69.1789389 203.486324,73.0049496 203.486324,77.2043649 C203.486324,81.5467759 201.820838,85.395524 198.671745,88.3292029 C195.398975,91.3826343 191.31191,92.9995432 186.856411,92.9995432 C182.481978,92.9995432 178.35334,91.3624229 175.230749,88.387816 C172.042163,85.3520698 170.355891,81.4856364 170.355891,77.2043649 C170.355891,72.9635163 172.087372,69.0127007 175.230749,66.0815482 C178.310728,63.1478693 182.440405,61.5339919 186.856411,61.5339919 Z M258.313177,61.5339919 C267.9626,61.5339919 273.722427,67.2755343 273.722427,76.8910889 L273.722427,76.8910889 L273.722427,78.3675287 L250.047587,78.3675287 C250.437326,83.4658445 253.46534,86.5026013 258.184302,86.5026013 C262.424147,86.5026013 265.13829,84.842238 267.262108,80.9576147 L267.262108,80.9576147 L267.374874,80.7494377 L273.488584,84.0888596 L273.37478,84.2884467 C270.005354,90.1507519 265.077492,92.9995432 258.313177,92.9995432 C248.717276,92.9995432 242.516785,86.8229514 242.516785,77.264999 C242.516785,68.0036485 249.01192,61.5339919 258.313177,61.5339919 Z M366.396698,62.5303636 L366.396698,79.0096963 C366.396698,84.4187617 368.517399,86.6248317 373.71704,86.6248317 C378.915642,86.6248317 381.036343,84.4187617 381.036343,79.0096963 L381.036343,79.0096963 L381.036343,62.5303636 L388.296406,62.5303636 L388.296406,77.0173615 C388.296406,88.2190027 383.953671,93 373.779918,93 C363.516265,93 359.136636,88.2190027 359.136636,77.0173615 L359.136636,77.0173615 L359.136636,62.5303636 L366.396698,62.5303636 Z M405.502772,61.4714885 C410.203544,61.4714885 413.644682,63.1985492 415.191168,66.3348469 L415.191168,66.3348469 L415.278469,66.5081592 L410.06116,70.0259467 L409.95567,69.752588 C409.270252,67.9997576 407.468614,66.9108707 405.243984,66.9108707 C402.78343,66.9108707 401.191733,68.1179943 401.191733,69.9824921 C401.191733,72.0632517 403.101977,72.7428589 406.271855,73.8620628 C407.049257,74.1389585 407.932665,74.4517292 408.854528,74.8125019 C414.372197,76.931158 416.622289,79.4656625 416.622289,83.554926 C416.622289,89.4682648 412.010896,92.9986841 404.285226,92.9986841 C398.456285,92.9986841 394.553696,90.8598168 392.354008,86.4577827 L392.354008,86.4577827 L392.256834,86.2602166 L398.347679,83.0294306 L398.427704,83.3063261 C399.249796,86.129348 401.413107,87.559807 404.862038,87.559807 C407.76118,87.559807 409.492141,86.2243414 409.492141,83.9904807 C409.492141,81.7945164 407.816263,81.195755 405.036121,80.2033769 C404.300815,79.9391137 403.465735,79.6425118 402.593759,79.2842657 C397.247055,77.0979016 393.932192,74.8413033 393.932192,70.3543814 C393.932192,65.0403094 398.580482,61.4714885 405.502772,61.4714885 Z M136.258333,61.4714885 C140.961706,61.4714885 144.403363,63.1985492 145.949848,66.3348469 L145.949848,66.3348469 L146.033512,66.5081592 L140.819321,70.0259467 L140.714352,69.752588 C140.02893,67.9997576 138.223658,66.9108707 136.002144,66.9108707 C133.538992,66.9108707 131.946778,68.1179943 131.946778,69.9824921 C131.946778,72.0632517 133.860137,72.7428589 137.030536,73.8620628 C137.807936,74.1389585 138.690306,74.4517292 139.612689,74.8125019 C145.129837,76.931158 147.380451,79.4656625 147.380451,83.554926 C147.380451,89.4682648 142.766978,92.9986841 135.043905,92.9986841 C129.214446,92.9986841 125.311857,90.8598168 123.111649,86.4577827 L123.111649,86.4577827 L123.014994,86.2602166 L129.106358,83.0294306 L129.185865,83.3063261 C130.005357,86.129348 132.171267,87.559807 135.618121,87.559807 C138.518821,87.559807 140.250821,86.2243414 140.250821,83.9904807 C140.250821,81.7945164 138.571305,81.195755 135.794283,80.2033769 C135.056377,79.9391137 134.223894,79.6425118 133.3488,79.2842657 C128.002616,77.0979016 124.690353,74.8413033 124.690353,70.3543814 C124.690353,65.0403094 129.338643,61.4714885 136.258333,61.4714885 Z M290.702689,61.4714885 C295.403984,61.4714885 298.845642,63.1985492 300.392127,66.3348469 L300.392127,66.3348469 L300.478908,66.5081592 L295.2616,70.0259467 L295.155589,69.752588 C294.471207,67.9997576 292.669053,66.9108707 290.445461,66.9108707 C287.98335,66.9108707 286.392692,68.1179943 286.392692,69.9824921 C286.392692,72.0632517 288.302416,72.7428589 291.472295,73.8620628 C292.249174,74.1389585 293.132584,74.4517292 294.054965,74.8125019 C299.572114,76.931158 301.822729,79.4656625 301.822729,83.554926 C301.822729,89.4682648 297.211855,92.9986841 289.485143,92.9986841 C283.656724,92.9986841 279.754136,90.8598168 277.553928,86.4577827 L277.553928,86.4577827 L277.457271,86.2602166 L283.548636,83.0294306 L283.628661,83.3063261 C284.450233,86.129348 286.613544,87.559807 290.062998,87.559807 C292.961097,87.559807 294.692581,86.2243414 294.692581,83.9904807 C294.692581,81.7945164 293.01618,81.195755 290.23656,80.2033769 C289.500732,79.9391137 288.666692,79.6425118 287.793676,79.2842657 C282.447492,77.0979016 279.132632,74.8413033 279.132632,70.3543814 C279.132632,65.0403094 283.780921,61.4714885 290.702689,61.4714885 Z M14.6923255,46.800819 L24.8899824,73.1837185 C25.2849182,74.0159212 26.0883007,75.9481271 27.1665791,78.6640288 C27.7937997,77.0087183 28.4740245,75.5696696 29.0269347,74.3878103 C29.2270007,73.9623609 29.414595,73.5626814 29.5855607,73.1897818 L29.5855607,73.1897818 L39.519754,46.800819 L45.7857214,46.800819 L54.3651814,91.8160664 L46.9637734,91.8160664 L41.1930345,62.3120276 L30.1104094,91.8236456 L24.2575656,91.8236456 L13.1115432,62.2529094 L7.38809262,91.8160664 L0.0495626822,91.8160664 L8.3863447,46.800819 L14.6923255,46.800819 Z M337.71979,46.8407877 L337.71979,53.4635452 L325.617088,53.4635452 L325.617088,91.817128 L317.717854,91.817128 L317.717854,53.4635452 L305.552273,53.4635452 L305.552273,46.8407877 L337.71979,46.8407877 Z M348.896055,61.5339919 C350.846313,61.5339919 352.756555,61.9826843 354.571699,62.8659208 L354.571699,62.8659208 L354.770206,62.9604089 L352.137128,69.0253329 L351.900685,68.8611154 C350.740823,68.0723672 349.497297,67.7217 347.871304,67.7217 C343.479202,67.7217 341.768505,70.8675982 341.768505,78.9465843 L341.768505,78.9465843 L341.768505,91.8166734 L334.508964,91.8166734 L334.508964,62.4662411 L341.768505,62.4662411 L341.768505,66.2275752 C343.302002,63.0326644 345.589508,61.5339919 348.896055,61.5339919 Z M227.028964,61.5339919 C231.542664,61.5339919 234.733329,62.9331233 236.512099,65.6894479 C238.021689,67.9212873 238.021689,70.6447679 238.021689,74.0902994 L238.021689,91.8166734 L230.699268,91.8166734 L230.699268,76.7683048 C230.699268,70.2986485 229.832488,67.5958842 224.467598,67.5958842 C221.35592,67.5958842 218.878217,68.7105407 217.492305,70.7321819 C216.279956,72.4668223 216.185899,75.0260857 216.185899,78.4493847 L216.185899,91.8166734 L208.928435,91.8166734 L208.928435,62.5304118 L215.803435,62.5304118 L215.803435,66.7581236 C218.490557,63.1509008 221.985219,61.5339919 227.028964,61.5339919 Z M431.864472,51.6345686 L431.864472,62.5315238 L437.049563,62.5315238 L437.049563,68.7788552 L431.864472,68.7788552 L431.864472,91.8152584 L424.604409,91.8152584 L424.604409,68.7788552 L419.418799,68.7788552 L419.418799,62.5315238 L424.604409,62.5315238 L424.604409,51.6345686 L431.864472,51.6345686 Z M66.7926143,62.529603 L66.7926143,91.8153586 L59.5330714,91.8153586 L59.5330714,62.529603 L66.7926143,62.529603 Z M81.6832512,46.8006169 L81.6832512,91.8153589 L74.4237085,91.8153589 L74.4237085,46.8006169 L81.6832512,46.8006169 Z M163.248918,51.6345686 L163.248918,62.5315238 L168.435048,62.5315238 L168.435048,68.7788552 L163.248918,68.7788552 L163.248918,91.8152584 L155.989375,91.8152584 L155.989375,68.7788552 L150.803765,68.7788552 L150.803765,62.5315238 L155.989375,62.5315238 L155.989375,51.6345686 L163.248918,51.6345686 Z M186.919289,67.90815 C181.918674,67.90815 178.000496,72.01813 178.000496,77.264999 C178.000496,82.5154052 181.918674,86.62488 186.919289,86.62488 C191.839357,86.62488 195.841719,82.4259699 195.841719,77.264999 C195.841719,72.01813 191.92354,67.90815 186.919289,67.90815 Z M103.369954,67.5958842 C99.1597308,67.5958842 96.576539,69.5250586 95.4779941,73.4885065 L95.4779941,73.4885065 L111.103939,73.4885065 C110.529204,69.6321789 107.85975,67.5958842 103.369954,67.5958842 Z M258.439452,67.5958842 C254.231826,67.5958842 251.647076,69.5250586 250.548012,73.4885065 L250.548012,73.4885065 L266.176035,73.4885065 C265.599221,69.6321789 262.932885,67.5958842 258.439452,67.5958842 Z M63.1613885,45.9678591 C65.7045669,45.9678591 67.6231232,47.8333677 67.6231232,50.3062276 C67.6231232,52.7735293 65.6624752,54.7077568 63.1613885,54.7077568 C60.7081101,54.7077568 58.6346972,52.6916733 58.6346972,50.3062276 C58.6346972,47.9157291 60.6654984,45.9678591 63.1613885,45.9678591 Z M218.764777,-1.77635684e-14 C226.243614,-1.77635684e-14 233.992667,0.258200128 241.995314,0.814517824 C321.902771,6.35647286 380.011852,32.8823675 405.667085,46.7953627 L381.02725,46.7953627 C350.813626,33.40281 296.953743,14.017589 230.274037,10.6427971 C224.595276,10.3557958 219.022525,10.2213902 213.556302,10.2213902 C127.637509,10.2213902 68.9926669,43.5691242 68.9926669,43.5691242 C68.9926669,43.5691242 121.540428,-0.00252642184 218.764777,-1.77635684e-14 Z" transform="translate(-.05)"/>
</svg>
