<svg xmlns="http://www.w3.org/2000/svg" width="347" height="119" viewBox="0 0 347 119">
  <path fill="#333" fill-rule="evenodd" d="M48.8164403,70.3447972 L48.8155627,70.48 L48.9531289,70.4801138 L48.9531289,102.364144 L48.9406738,102.364484 C49.1075958,106.66715 47.5546718,111.021837 44.2570828,114.306439 C37.9734227,120.56452 27.7866445,120.56452 21.5038215,114.306439 C18.1715648,110.987305 16.6247147,106.575133 16.8272784,102.228827 L16.8225627,102.348 L16.5462103,102.357675 C12.312097,102.450887 8.04895717,100.904561 4.81767797,97.6860072 C-1.4651451,91.4279264 -1.4651451,81.2804308 4.81767797,75.0223499 C8.11541396,71.7376007 12.4875601,70.1908007 16.8074257,70.3566225 L16.8071894,70.3447972 L48.8164403,70.3447972 Z M104.884484,70.3447972 L104.884136,70.3588692 C109.222203,70.1774586 113.617916,71.7233996 116.92991,75.0223499 C123.212733,81.2804308 123.212733,91.4279264 116.92991,97.6860072 C113.597653,101.005141 109.168037,102.5459 104.804547,102.344134 L104.867563,102.346 L104.877989,102.624095 C104.971571,106.841534 103.419131,111.087885 100.187852,114.306439 C93.9050288,120.56452 83.7182506,120.56452 77.4345905,114.306439 C73.9540157,110.839571 72.4171038,106.180565 72.7939588,101.648881 L72.7944587,70.4801138 L72.8735627,70.48 L72.874396,70.3447972 L104.884484,70.3447972 Z M212.375919,68.0194024 C214.48526,68.0194024 216.43389,68.4154307 218.222644,69.2066536 C220.010562,69.9987101 221.485427,71.1559465 222.648076,72.6783627 C223.381323,73.6530091 223.937954,74.7952381 224.320482,76.1033821 C224.703846,77.4131936 224.894691,79.0723437 224.894691,81.0825 L224.894691,87.8875168 C224.894691,90.2628528 224.558201,92.3096938 223.886058,94.0305409 C223.213078,95.7505544 222.280615,97.1662513 221.08867,98.2784655 C219.895888,99.389846 218.482127,100.211917 216.846551,100.74468 C215.210974,101.277442 213.43059,101.54424 211.504561,101.54424 C210.159437,101.54424 208.921455,101.460032 207.790614,101.293283 C206.659772,101.124867 205.657835,100.928103 204.787314,100.698824 C203.915955,100.471212 203.196937,100.242766 202.631935,100.01432 C202.065259,99.7858743 201.691939,99.6099543 201.508628,99.4890615 L203.525894,94.2364757 C203.617132,94.2965052 203.862384,94.4032244 204.259141,94.5557995 C204.656735,94.7083746 205.169004,94.8676197 205.795947,95.0360359 C206.422053,95.2027847 207.1553,95.3553598 207.996525,95.4920938 C208.837751,95.6296615 209.745939,95.6980285 210.725276,95.6980285 C211.702939,95.6980285 212.611965,95.5904756 213.45319,95.3778709 C214.294415,95.1652662 215.012596,94.8075902 215.608568,94.3048427 C216.204541,93.8020951 216.670772,93.1634474 217.007262,92.3863982 C217.343752,91.6101827 217.511997,90.6438737 217.511997,89.4866373 L217.511997,88.9838898 C217.358819,89.1364649 217.106033,89.3490696 216.754476,89.6233713 C216.403756,89.897673 215.945058,90.171141 215.380056,90.4454427 C214.81338,90.7189106 214.14877,90.9631976 213.384553,91.1758022 C212.619498,91.3892406 211.764043,91.4959598 210.816514,91.4959598 C209.16587,91.4959598 207.644969,91.2441692 206.253808,90.7422555 C204.863484,90.239508 203.664006,89.5016447 202.655373,88.5269982 C201.645902,87.5523518 200.866618,86.3575969 200.316682,84.9410662 C199.76591,83.5253693 199.490524,81.9195788 199.490524,80.1228609 C199.490524,78.3269768 199.811947,76.6903378 200.453957,75.2129438 C201.095967,73.7363835 201.982392,72.4649243 203.113233,71.3993997 C204.244075,70.3338752 205.596731,69.5034663 207.171204,68.9098408 C208.745676,68.3162152 210.480023,68.0194024 212.375919,68.0194024 Z M258.96281,61.8080112 C259.788968,61.8080112 260.537282,61.9072267 261.210262,62.1039903 C261.882406,62.303255 262.310133,62.4324853 262.494282,62.4925149 L262.494282,68.6588839 L267.767635,68.6588839 C269.143728,68.6588839 270.121391,68.9323519 270.702297,69.4809553 C271.283203,70.0287249 271.573656,70.8507963 271.573656,71.9471694 C271.573656,72.739226 271.450611,73.4770892 271.207032,74.1624266 C270.96178,74.847764 270.777631,75.2971519 270.65626,75.5097566 L262.494282,75.5097566 L262.494282,82.6807868 C262.494282,83.3811316 262.601423,83.936405 262.815705,84.3482744 C263.028313,84.7593101 263.297003,85.0861376 263.61759,85.3295908 C263.939013,85.5738778 264.305637,85.7339566 264.718297,85.8098272 C265.130121,85.8856979 265.550315,85.9240501 265.97888,85.9240501 C266.835172,85.9240501 267.614456,85.7948199 268.31757,85.5355255 C269.020684,85.277065 269.524582,85.0561229 269.830938,84.873533 L272.719564,89.897673 C272.444178,90.1411262 272.047421,90.4154279 271.526782,90.7189106 C271.00698,91.0240609 270.380874,91.31337 269.647627,91.5876717 C268.914379,91.8611396 268.088221,92.0970891 267.171662,92.2946864 C266.254266,92.4931174 265.290833,92.5923329 264.2822,92.5923329 C261.408641,92.5923329 259.162025,91.8386285 257.541516,90.3312198 C255.921006,88.823811 255.111588,86.8069848 255.111588,84.2790737 L255.111588,65.0504408 C255.111588,63.8631897 255.462308,63.0252771 256.166259,62.5383708 C256.868535,62.0514644 257.800998,61.8080112 258.96281,61.8080112 Z M155.746222,61.8080112 C156.571543,61.8080112 157.320694,61.9072267 157.992837,62.1039903 C158.664981,62.303255 159.093545,62.4324853 159.276857,62.4925149 L159.276857,68.6588839 L164.55021,68.6588839 C165.925467,68.6588839 166.903966,68.9323519 167.484872,69.4809553 C168.064941,70.0287249 168.355394,70.8507963 168.355394,71.9471694 C168.355394,72.739226 168.233186,73.4770892 167.989607,74.1624266 C167.744355,74.847764 167.561043,75.2971519 167.438835,75.5097566 L159.276857,75.5097566 L159.276857,82.6807868 C159.276857,83.3811316 159.383161,83.936405 159.597443,84.3482744 C159.810889,84.7593101 160.078741,85.0861376 160.400165,85.3295908 C160.721588,85.5738778 161.087375,85.7339566 161.500873,85.8098272 C161.913533,85.8856979 162.333727,85.9240501 162.762292,85.9240501 C163.61691,85.9240501 164.396194,85.7948199 165.100145,85.5355255 C165.803259,85.277065 166.307994,85.0561229 166.613514,84.873533 L169.502139,89.897673 C169.226753,90.1411262 168.829159,90.4154279 168.310194,90.7189106 C167.790392,91.0240609 167.163449,91.31337 166.430202,91.5876717 C165.696118,91.8611396 164.871633,92.0970891 163.9534,92.2946864 C163.036004,92.4931174 162.074245,92.5923329 161.064775,92.5923329 C158.191216,92.5923329 155.943763,91.8386285 154.324928,90.3312198 C152.703581,88.823811 151.894163,86.8069848 151.894163,84.2790737 L151.894163,65.0504408 C151.894163,63.8631897 152.24572,63.0252771 152.948834,62.5383708 C153.651947,62.0514644 154.583573,61.8080112 155.746222,61.8080112 Z M240.989801,68.0189855 C242.639607,68.0189855 244.122842,68.2399276 245.436995,68.6818118 C246.750311,69.123696 247.859389,69.7248253 248.760881,70.4860334 C249.662373,71.2472415 250.35042,72.1151687 250.825022,73.0889815 C251.298787,74.063628 251.535669,75.0682892 251.535669,76.103799 C251.535669,77.2301868 251.336453,78.2431855 250.938859,79.1411276 C250.541265,80.0399034 249.831455,80.8011115 248.806918,81.4247518 C247.782381,82.0492259 246.392058,82.5286286 244.634273,82.8629598 C242.876489,83.1989586 240.637407,83.3657073 237.917026,83.3657073 L236.311583,83.3657073 C236.372687,83.7317209 236.533399,84.089397 236.793719,84.4387356 C237.052364,84.7897417 237.419825,85.117403 237.893589,85.4208858 C238.367354,85.726036 238.97086,85.9694892 239.704944,86.1520791 C240.439028,86.334669 241.324617,86.4263808 242.364221,86.4263808 C243.159409,86.4263808 243.90856,86.3580138 244.610836,86.2204461 C245.31395,86.0837121 245.925826,85.9394744 246.445628,85.7868993 C246.96543,85.6343242 247.39232,85.4825828 247.729648,85.3300077 C248.065301,85.1782663 248.264516,85.0715471 248.326457,85.0098501 L250.893659,90.1257019 C250.648407,90.2782771 250.244116,90.4908817 249.678277,90.7651834 C249.112438,91.0394851 248.401791,91.3129531 247.546336,91.5872548 C246.690044,91.8615565 245.688944,92.0966722 244.542199,92.2951033 C243.396291,92.4927005 242.134872,92.591916 240.760452,92.591916 C239.047031,92.591916 237.442425,92.3176143 235.944123,91.7698447 C234.447495,91.222075 233.139201,90.4225147 232.024264,89.3719976 C230.907653,88.3214804 230.029597,87.0350137 229.387588,85.5125976 C228.745578,83.9901814 228.424992,82.2543269 228.424992,80.3058677 C228.424992,78.479135 228.745578,76.8041438 229.387588,75.2817276 C230.029597,73.7593115 230.916023,72.4653411 232.046864,71.3989828 C233.177705,70.3334583 234.507762,69.5038832 236.036197,68.9102576 C237.56547,68.3157983 239.215276,68.0189855 240.989801,68.0189855 Z M183.350298,68.0189855 C185.123149,68.0189855 186.796392,68.3316395 188.371702,68.9552798 C189.945337,69.5797539 191.320594,70.4401775 192.498309,71.5365506 C193.675188,72.6320899 194.59928,73.926894 195.27226,75.4184616 C195.944403,76.910863 196.281731,78.5399983 196.281731,80.3058677 C196.281731,82.071737 195.944403,83.7017061 195.27226,85.1932737 C194.59928,86.6848413 193.675188,87.9788117 192.498309,89.0751848 C191.320594,90.1715578 189.945337,91.0319814 188.371702,91.6556218 C186.796392,92.2792621 185.123149,92.591916 183.350298,92.591916 C181.546476,92.591916 179.8657,92.2792621 178.306294,91.6556218 C176.747726,91.0319814 175.378328,90.1715578 174.20145,89.0751848 C173.025408,87.9788117 172.099642,86.6848413 171.428336,85.1932737 C170.755355,83.7017061 170.419702,82.071737 170.419702,80.3058677 C170.419702,78.5399983 170.755355,76.910863 171.428336,75.4184616 C172.099642,73.926894 173.025408,72.6320899 174.20145,71.5365506 C175.378328,70.4401775 176.747726,69.5797539 178.306294,68.9552798 C179.8657,68.3316395 181.546476,68.0189855 183.350298,68.0189855 Z M315.363409,68.0189855 C317.014052,68.0189855 318.49645,68.2399276 319.81144,68.6818118 C321.125593,69.123696 322.234672,69.7248253 323.136164,70.4860334 C324.037656,71.2472415 324.724866,72.1151687 325.199468,73.0889815 C325.674069,74.063628 325.910115,75.0682892 325.910115,76.103799 C325.910115,77.2301868 325.710899,78.2431855 325.314142,79.1411276 C324.915711,80.0399034 324.205901,80.8011115 323.181364,81.4247518 C322.157664,82.0492259 320.766503,82.5286286 319.009556,82.8629598 C317.251772,83.1989586 315.011852,83.3657073 312.291472,83.3657073 L310.686029,83.3657073 C310.74797,83.7317209 310.908682,84.089397 311.168164,84.4387356 C311.42681,84.7897417 311.79427,85.117403 312.268035,85.4208858 C312.7418,85.726036 313.345306,85.9694892 314.080227,86.1520791 C314.813474,86.334669 315.699062,86.4263808 316.739503,86.4263808 C317.533854,86.4263808 318.283005,86.3580138 318.986119,86.2204461 C319.688396,86.0837121 320.301109,85.9394744 320.820074,85.7868993 C321.339876,85.6343242 321.767603,85.4825828 322.104093,85.3300077 C322.440583,85.1782663 322.639799,85.0715471 322.700066,85.0098501 L325.268942,90.1257019 C325.022852,90.2782771 324.618562,90.4908817 324.052723,90.7651834 C323.487721,91.0394851 322.776237,91.3129531 321.920782,91.5872548 C321.065327,91.8615565 320.06339,92.0966722 318.917482,92.2951033 C317.771574,92.4927005 316.510154,92.591916 315.134897,92.591916 C313.422313,92.591916 311.81687,92.3176143 310.319406,91.7698447 C308.821941,91.222075 307.514484,90.4225147 306.39871,89.3719976 C305.282935,88.3214804 304.40488,87.0350137 303.76287,85.5125976 C303.120024,83.9901814 302.7986,82.2543269 302.7986,80.3058677 C302.7986,78.479135 303.120024,76.8041438 303.76287,75.2817276 C304.40488,73.7593115 305.290469,72.4653411 306.422147,71.3989828 C307.552988,70.3334583 308.883045,69.5038832 310.41148,68.9102576 C311.939915,68.3157983 313.589721,68.0189855 315.363409,68.0189855 Z M339.666032,68.0188188 C341.500824,68.0188188 342.929651,68.2180836 343.953351,68.6132781 C344.977051,69.0093064 345.719506,69.4353495 346.178204,69.8922411 C346.452753,70.1965575 346.667035,70.5167152 346.819377,70.8510464 C346.972555,71.1862114 347.049563,71.581406 347.049563,72.0391313 C347.049563,72.4951892 346.980088,72.922066 346.841977,73.3172605 C346.705539,73.7132888 346.537294,74.064295 346.338916,74.3677777 C346.1397,74.6729279 345.948855,74.9322222 345.764706,75.1448269 C345.582231,75.3574316 345.44412,75.5100067 345.352045,75.6017185 C344.832243,75.3574316 344.206137,75.1298195 343.47289,74.9163811 C342.738806,74.7037764 341.928551,74.5962235 341.042126,74.5962235 C339.880314,74.5962235 338.894281,74.9322222 338.084863,75.6017185 C337.274608,76.2712148 336.869481,77.3825952 336.869481,78.9350261 L336.869481,91.9522678 L329.486787,91.9522678 L329.486787,77.3367393 C329.486787,75.8451717 329.738736,74.5211866 330.243471,73.3631164 C330.747369,72.2058801 331.44295,71.2320673 332.329375,70.4400107 C333.215801,69.6487879 334.285538,69.0468249 335.539424,68.6357892 C336.792473,68.2247535 338.168567,68.0188188 339.666032,68.0188188 Z M279.321801,58.2903628 C280.147123,58.2903628 280.888741,58.3895783 281.546654,58.5871756 C282.203731,58.7864404 282.623925,58.9148369 282.807236,58.9757002 L282.807236,70.0286416 C283.387305,69.5117204 284.18333,69.0398214 285.191964,68.6129446 C286.200597,68.1869015 287.50052,67.9734631 289.089222,67.9734631 C290.465316,67.9734631 291.734269,68.1643905 292.895244,68.5445776 C294.057056,68.9255985 295.073222,69.5192241 295.943744,70.3262881 C296.81594,71.1333521 297.496453,72.1530207 297.985285,73.3861278 C298.473279,74.6192348 298.719369,76.0741177 298.719369,77.7474415 L298.719369,91.9527681 L291.335838,91.9527681 L291.335838,79.2548503 C291.335838,77.7024193 290.992652,76.5760315 290.304605,75.874853 C289.616558,75.1753419 288.584487,74.8251695 287.20923,74.8251695 C285.833973,74.8251695 284.763399,75.2353715 283.999182,76.0582766 C283.234964,76.880348 282.853274,78.1593109 282.853274,79.8943317 L282.853274,91.9527681 L275.47058,91.9527681 L275.47058,61.5336261 C275.47058,60.346375 275.8213,59.5084625 276.52525,59.0215561 C277.227527,58.5346498 278.15999,58.2903628 279.321801,58.2903628 Z M183.350298,74.5963902 C182.55511,74.5963902 181.836929,74.7414617 181.195757,75.0307708 C180.55291,75.3200798 179.987071,75.7152744 179.498239,76.2180219 C179.009408,76.7199357 178.634414,77.3218987 178.374932,78.0222434 C178.115449,78.7225882 177.985708,79.4837963 177.985708,80.3058677 C177.985708,81.127939 178.115449,81.8891471 178.374932,82.5894919 C178.634414,83.2906704 179.009408,83.8909659 179.498239,84.3937134 C179.987071,84.8964609 180.55291,85.2924892 181.195757,85.5809646 C181.836929,85.8711074 182.55511,86.0145113 183.350298,86.0145113 C184.114516,86.0145113 184.825163,85.8711074 185.483076,85.5809646 C186.140153,85.2924892 186.712688,84.8964609 187.202357,84.3937134 C187.690351,83.8909659 188.065345,83.2906704 188.325664,82.5894919 C188.585147,81.8891471 188.715725,81.127939 188.715725,80.3058677 C188.715725,79.4837963 188.585147,78.7225882 188.325664,78.0222434 C188.065345,77.3218987 187.690351,76.7199357 187.202357,76.2180219 C186.712688,75.7152744 186.140153,75.3200798 185.483076,75.0307708 C184.825163,74.7414617 184.114516,74.5963902 183.350298,74.5963902 Z M212.284682,74.8252529 C211.519627,74.8252529 210.816514,74.9619869 210.175341,75.2354548 C209.533331,75.5097566 208.983396,75.8907775 208.523861,76.3776838 C208.066,76.8654239 207.706073,77.428201 207.445753,78.0676825 C207.186271,78.707164 207.056529,79.3925014 207.056529,80.1228609 C207.056529,81.8587155 207.545361,83.1535196 208.523861,84.0056057 C209.501524,84.8585256 210.75541,85.2845687 212.284682,85.2845687 C213.782147,85.2845687 215.027662,84.8126697 216.021229,83.868038 C217.013959,82.9250738 217.511997,81.6761256 217.511997,80.1228609 C217.511997,78.57043 217.013959,77.2989707 216.021229,76.3093168 C215.027662,75.3204967 213.782147,74.8252529 212.284682,74.8252529 Z M315.318209,73.6826071 C314.492051,73.6826071 313.77387,73.8276785 313.162831,74.1169876 C312.550955,74.4062967 312.039523,74.7789801 311.626025,75.2358717 C311.213364,75.6927633 310.900311,76.2180219 310.686029,76.8116475 C310.471747,77.405273 310.349539,78.0072361 310.319406,78.615869 C312.366806,78.615869 313.958019,78.5399983 315.08886,78.3874232 C316.219701,78.2348481 317.060927,78.0380846 317.610862,77.7937976 C318.161634,77.5503445 318.49645,77.2760428 318.619495,76.9717263 C318.740866,76.6674098 318.802807,76.3630933 318.802807,76.0579431 C318.802807,75.4184616 318.511517,74.8631883 317.931448,74.3912893 C317.350543,73.9185565 316.478347,73.6826071 315.318209,73.6826071 Z M240.942926,73.6826071 C240.117605,73.6826071 239.398587,73.8276785 238.788385,74.1169876 C238.175672,74.4062967 237.66424,74.7789801 237.25158,75.2358717 C236.839756,75.6927633 236.525029,76.2180219 236.311583,76.8116475 C236.097301,77.405273 235.974256,78.0072361 235.944123,78.615869 C237.99236,78.615869 239.582736,78.5399983 240.713577,78.3874232 C241.844419,78.2348481 242.685644,78.0380846 243.235579,77.7937976 C243.786352,77.5503445 244.122842,77.2760428 244.244213,76.9717263 C244.36642,76.6674098 244.428361,76.3630933 244.428361,76.0579431 C244.428361,75.4184616 244.137071,74.8631883 243.557003,74.3912893 C242.976097,73.9185565 242.104738,73.6826071 240.942926,73.6826071 Z M305.368062,19.2769066 C306.193384,19.2769066 306.942535,19.3752884 307.614678,19.5728857 C308.287658,19.7721504 308.715386,19.9013807 308.898697,19.9614103 L308.898697,26.1277793 L314.17205,26.1277793 C315.547307,26.1277793 316.525807,26.4012473 317.106713,26.9498507 C317.686782,27.4976203 317.977234,28.3196917 317.977234,29.4160648 C317.977234,30.2081214 317.855864,30.9459846 317.611448,31.631322 C317.366195,32.3166594 317.182883,32.7660473 317.060676,32.978652 L308.898697,32.978652 L308.898697,40.1496822 C308.898697,40.850027 309.005002,41.4053004 309.219284,41.8171698 C309.432729,42.2282055 309.700582,42.555033 310.022005,42.7984862 C310.343429,43.0427732 310.709215,43.202852 311.122713,43.2787226 C311.536211,43.3545933 311.955568,43.3929455 312.384132,43.3929455 C313.23875,43.3929455 314.018035,43.2637153 314.722823,43.0044209 C315.425099,42.7459604 315.929834,42.5250183 316.235354,42.3424284 L319.123979,47.3665684 C318.84943,47.6100216 318.450999,47.8843233 317.932034,48.187806 C317.412232,48.4929563 316.785289,48.7822654 316.052042,49.0565671 C315.317958,49.330035 314.493474,49.5659845 313.576078,49.7635818 C312.657845,49.9620128 311.696085,50.0612283 310.686615,50.0612283 C307.813056,50.0612283 305.565604,49.3075239 303.946768,47.8001152 C302.325421,46.2927064 301.516004,44.2758802 301.516004,41.7479691 L301.516004,22.5193362 C301.516004,21.3320851 301.86756,20.4941726 302.570674,20.0072662 C303.273788,19.5203598 304.206251,19.2769066 305.368062,19.2769066 Z M250.113119,15.7591749 C250.939278,15.7591749 251.680058,15.8592241 252.337135,16.0559876 C252.995048,16.2552524 253.414406,16.3844827 253.598554,16.4445122 L253.598554,28.0002011 C254.14849,27.4515977 254.981345,26.8963243 256.097956,26.3327135 C257.213731,25.7699365 258.626654,25.4881311 260.339238,25.4881311 C261.897807,25.4881311 263.365975,25.7849438 264.740395,26.3785694 C266.116489,26.972195 267.315968,27.8026038 268.340505,28.8681284 C269.364205,29.9344867 270.175297,31.2201196 270.771269,32.7275283 C271.367242,34.2349371 271.665228,35.917432 271.665228,37.7750132 C271.665228,39.6017458 271.344642,41.2767371 270.702632,42.7983195 C270.059785,44.3215694 269.17336,45.6155397 268.042519,46.6810643 C266.91084,47.7474226 265.574087,48.5761639 264.029748,49.1706232 C262.486246,49.7642488 260.813003,50.0610616 259.009182,50.0610616 C256.808603,50.0610616 254.805566,49.6650333 253.002582,48.8729767 C251.197923,48.0817538 249.716362,46.9253512 248.554551,45.4021013 C247.821304,44.4282886 247.254627,43.2251963 246.857033,41.7936582 C246.460276,40.3629539 246.261898,38.6729552 246.261898,36.724496 L246.261898,19.0024382 C246.261898,17.815187 246.613455,16.9772745 247.315731,16.4903682 C248.018845,16.0034618 248.951308,15.7591749 250.113119,15.7591749 Z M287.393463,25.4877976 C289.044106,25.4877976 290.526504,25.7095734 291.840657,26.1506239 C293.15481,26.5925081 294.263051,27.1936373 295.16538,27.9548454 C296.066035,28.7160535 296.754919,29.5839808 297.228684,30.5577935 C297.702449,31.53244 297.939331,32.5371012 297.939331,33.572611 C297.939331,34.6989989 297.740953,35.7119976 297.343359,36.6099396 C296.945765,37.5087154 296.235118,38.2699235 295.211418,38.8935638 C294.186043,39.5180379 292.79572,39.9974406 291.037936,40.3326056 C289.280151,40.6677706 287.041906,40.8345194 284.319852,40.8345194 L282.716083,40.8345194 C282.77635,41.2005329 282.937061,41.558209 283.198218,41.9075476 C283.456863,42.2585538 283.823487,42.5862151 284.297252,42.8905315 C284.771853,43.194848 285.375359,43.4383012 286.109443,43.6208911 C286.842691,43.803481 287.729116,43.8951928 288.767883,43.8951928 C289.562234,43.8951928 290.312222,43.8268258 291.015335,43.6892581 C291.718449,43.5525241 292.329491,43.4082864 292.84929,43.2557113 C293.369929,43.1031362 293.795983,42.9513948 294.134147,42.7988197 C294.4698,42.6470784 294.668179,42.5403592 294.729282,42.4794959 L297.297321,47.594514 C297.052906,47.7470891 296.648615,47.9596937 296.082776,48.2339954 C295.5161,48.5082972 294.805453,48.7817651 293.949998,49.0560668 C293.093706,49.3303685 292.093443,49.5654843 290.946698,49.7639153 C289.799953,49.9615126 288.538534,50.0607281 287.164114,50.0607281 C285.450693,50.0607281 283.846924,49.7864264 282.348622,49.2386567 C280.851157,48.690887 279.543701,47.8913268 278.428763,46.8408096 C277.312152,45.7902924 276.43326,44.5046595 275.792087,42.9814096 C275.150077,41.4589935 274.829491,39.7239727 274.829491,37.7746797 C274.829491,35.9479471 275.150077,34.2729558 275.792087,32.7505397 C276.43326,31.2281235 277.319685,29.9341532 278.451363,28.8686286 C279.581368,27.803104 280.911424,26.9726952 282.43986,26.3790697 C283.969132,25.7846104 285.619775,25.4877976 287.393463,25.4877976 Z M186.421984,25.4877142 C188.193998,25.4877142 189.861382,25.647793 191.419951,25.9679506 C192.980193,26.2872745 194.331176,26.8358779 195.478758,27.6120933 C196.624666,28.3883088 197.526158,29.4163149 198.184072,30.6952779 C198.841148,31.9742408 199.170105,33.5725277 199.170105,35.4909721 L199.170105,49.2844292 C198.986793,49.3452925 198.574132,49.4144933 197.931286,49.4895302 C197.290113,49.5654009 196.487391,49.649609 195.523958,49.7413208 C194.561362,49.8321989 193.460654,49.9080696 192.222672,49.9697666 C190.98469,50.0297962 189.67807,50.0606447 188.301976,50.0606447 C185.97919,50.0606447 184.052323,49.8555437 182.524725,49.444508 C180.995453,49.0334724 179.773374,48.478199 178.855978,47.7770205 C177.938583,47.0775094 177.29741,46.2629418 176.929949,45.3333175 C176.563326,44.4053606 176.380014,43.4232104 176.380014,42.3877007 C176.380014,39.5863216 177.281506,37.5845027 179.085327,36.3814105 C180.888312,35.1783182 183.746804,34.5771889 187.660803,34.5771889 C188.638466,34.5771889 189.455417,34.59303 190.113331,34.6230448 C190.770407,34.6538933 191.311972,34.6989155 191.741374,34.7597788 C191.741374,33.6942542 191.305276,32.8571755 190.433917,32.2477088 C189.563396,31.6390758 188.118664,31.3347593 186.101398,31.3347593 C185.153031,31.3347593 184.320176,31.3881189 183.602833,31.4948381 C182.883815,31.6015573 182.272776,31.7307876 181.768041,31.882529 C181.263306,32.0351041 180.857341,32.1868455 180.553496,32.3394206 C180.247139,32.4919957 180.032857,32.6128886 179.910649,32.7046004 C179.848708,32.6437371 179.7265,32.5220105 179.544862,32.3394206 C179.360714,32.1568307 179.176565,31.9208812 178.99409,31.6315721 C178.809941,31.342263 178.641696,31.0146017 178.489355,30.6494219 C178.336177,30.2842422 178.260006,29.8890476 178.260006,29.4621708 C178.260006,26.8125331 180.980386,25.4877142 186.421984,25.4877142 Z M231.359403,25.4882978 C232.826734,25.4882978 234.194458,25.6783914 235.463411,26.0594123 C236.731527,26.4404332 237.832234,27.0115477 238.764697,27.771922 C239.69716,28.5331301 240.430407,29.4694244 240.966112,30.5808048 C241.500144,31.693019 241.768834,32.9944931 241.768834,34.4860607 L241.768834,49.4217468 L234.385303,49.4217468 L234.385303,36.587095 C234.385303,35.0346641 234.064717,33.9232837 233.422707,33.2529537 C232.781534,32.5834574 231.879205,32.2482924 230.717393,32.2482924 C229.525448,32.2482924 228.554482,32.6443207 227.805331,33.4355435 C227.05618,34.2276001 226.68286,35.490722 226.68286,37.2265765 L226.68286,49.4217468 L219.299329,49.4217468 L219.299329,37.2265765 C219.299329,35.490722 218.932706,34.2276001 218.199458,33.4355435 C217.465374,32.6443207 216.501941,32.2482924 215.310833,32.2482924 C214.149021,32.2482924 213.238322,32.5834574 212.581245,33.2529537 C211.924169,33.9232837 211.596049,35.0346641 211.596049,36.587095 L211.596049,49.4217468 L204.213355,49.4217468 L204.213355,34.4860607 C204.213355,32.9944931 204.480371,31.693019 205.01524,30.5808048 C205.550945,29.4694244 206.283355,28.5331301 207.216655,27.771922 C208.148281,27.0115477 209.248989,26.4404332 210.518778,26.0594123 C211.786894,25.6783914 213.169684,25.4882978 214.668823,25.4882978 C216.501941,25.4882978 218.137518,25.7926143 219.574715,26.4012473 C221.011076,27.0115477 222.172888,27.8628001 223.059313,28.9591732 C223.945739,27.8628001 225.091647,27.0115477 226.498711,26.4012473 C227.904102,25.7926143 229.525448,25.4882978 231.359403,25.4882978 Z M156.570874,18.0885716 C157.457299,18.0885716 158.245791,18.1961246 158.933001,18.4087292 C159.620211,18.6221676 160.056309,18.7589016 160.23962,18.8197649 L160.23962,42.2963223 L174.775659,42.2963223 L174.775659,49.4214967 L152.581541,49.4214967 L152.581541,21.4685689 C152.581541,20.2204545 152.949001,19.3450235 153.682248,18.842276 C154.416332,18.3403622 155.378092,18.0885716 156.570874,18.0885716 Z M325.727054,15.7591749 C326.552376,15.7591749 327.293156,15.8592241 327.950233,16.0559876 C328.608146,16.2552524 329.02834,16.3844827 329.211652,16.4445122 L329.211652,27.4974536 C329.791721,26.9805324 330.587746,26.5086335 331.596379,26.0817566 C332.605013,25.6557136 333.903262,25.4422752 335.494475,25.4422752 C336.869732,25.4422752 338.137011,25.6332025 339.299659,26.0133896 C340.460634,26.3944106 341.477638,26.9880361 342.349834,27.7951001 C343.221192,28.6021641 343.900032,29.6218327 344.3897,30.8549398 C344.878532,32.0880468 345.122947,33.5429297 345.122947,35.2170873 L345.122947,49.4215801 L337.741091,49.4215801 L337.741091,36.724496 C337.741091,35.1712314 337.39623,34.0448435 336.70902,33.343665 C336.02181,32.6441539 334.988903,32.2939816 333.614483,32.2939816 C332.237552,32.2939816 331.167815,32.7041835 330.404434,33.5270886 C329.640217,34.34916 329.257689,35.6281229 329.257689,37.3631438 L329.257689,49.4215801 L321.874995,49.4215801 L321.874995,19.0024382 C321.874995,17.815187 322.226552,16.9772745 322.929666,16.4903682 C323.63278,16.0034618 324.564405,15.7591749 325.727054,15.7591749 Z M77.4345905,4.69356063 C83.7182506,-1.56452021 93.9050288,-1.56452021 100.187852,4.69356063 C103.520109,8.01269462 105.066959,12.4248667 104.864395,16.7711731 L104.867563,16.653 L105.201377,16.6422419 C109.435491,16.5490293 113.69863,18.0953553 116.92991,21.3139094 C123.212733,27.5719903 123.212733,37.7186521 116.92991,43.9775667 C113.617916,47.276517 109.222203,48.822458 104.884136,48.6404365 L104.884484,48.6552028 L72.874396,48.6552028 L72.8735627,48.518 L72.7944587,48.5189691 L72.7939588,17.3511192 C72.4171038,12.819435 73.9540157,8.16042868 77.4345905,4.69356063 Z M44.2570828,4.69356063 C47.7376576,8.16042868 49.2745695,12.819435 48.8970027,17.3511192 L48.8971309,48.5189691 L48.8155627,48.518 L48.8164403,48.6552028 L16.8071894,48.6552028 L16.8074532,48.6404365 C12.4693866,48.822458 8.07367316,47.276517 4.76167998,43.9775667 C-1.52114308,37.7186521 -1.52114308,27.5719903 4.76167998,21.3139094 C8.09393666,17.9947754 12.5235529,16.4540169 16.887043,16.6557829 L16.8225627,16.653 L16.8136838,16.3759051 C16.7201026,12.1584661 18.2725423,7.91211481 21.5038215,4.69356063 C27.7866445,-1.56452021 37.9734227,-1.56452021 44.2570828,4.69356063 Z M188.164702,39.5104509 C187.247306,39.5104509 186.498155,39.5863216 185.918086,39.7388967 C185.33718,39.8914718 184.886015,40.0965728 184.564592,40.3550333 C184.244006,40.6143276 184.02219,40.9111404 183.900819,41.2454717 C183.778611,41.5814704 183.71667,41.9308091 183.71667,42.2959889 C183.71667,42.5702906 183.763545,42.8604334 183.853945,43.1639161 C183.945182,43.4690664 184.144398,43.7425343 184.450755,43.9859875 C184.755437,44.2302744 185.214135,44.4362091 185.826011,44.6029579 C186.437051,44.7705404 187.247306,44.8539148 188.255939,44.8539148 C189.051127,44.8539148 189.785211,44.8314037 190.457354,44.7855478 C191.130335,44.7396919 191.573129,44.687166 191.787411,44.625469 L191.787411,39.7388967 C191.512025,39.6780334 191.106898,39.6246738 190.572029,39.5788179 C190.03716,39.532962 189.234439,39.5104509 188.164702,39.5104509 Z M258.82587,32.2022697 C258.061652,32.2022697 257.358539,32.3473412 256.716529,32.6358165 C256.074519,32.9259593 255.516213,33.3211539 255.042449,33.8239014 C254.568684,34.3258152 254.201223,34.9194407 253.942578,35.6047781 C253.682258,36.2901155 253.552517,37.0288125 253.552517,37.8200354 C253.552517,39.5258751 254.048882,40.8657014 255.042449,41.8395141 C256.036015,42.8141606 257.296598,43.301067 258.82587,43.301067 C260.354305,43.301067 261.614888,42.7983195 262.608454,41.7936582 C263.601184,40.788997 264.099223,39.4641781 264.099223,37.8200354 C264.099223,36.1758926 263.601184,34.8285627 262.608454,33.7780455 C261.614888,32.7275283 260.354305,32.2022697 258.82587,32.2022697 Z M287.347426,31.1514191 C286.521267,31.1514191 285.803087,31.2964905 285.192047,31.5857996 C284.579334,31.8751087 284.06874,32.2477922 283.656079,32.7046837 C283.242581,33.1615753 282.929528,33.6868339 282.716083,34.2804595 C282.5018,34.8740851 282.378756,35.4760481 282.348622,36.084681 C284.396859,36.084681 285.986398,36.0088104 287.118077,35.8562352 C288.248918,35.7036601 289.089306,35.5068966 289.639242,35.2626097 C290.190014,35.0191565 290.526504,34.7448548 290.647875,34.4405383 C290.770083,34.1362218 290.832024,33.8319053 290.832024,33.5267551 C290.832024,32.8872736 290.541571,32.3320003 289.960665,31.8601013 C289.380596,31.3882023 288.5084,31.1514191 287.347426,31.1514191 Z" transform="translate(-.05)"/>
</svg>
